name analog
datacolumns 19
datarows 46
range 0.0 0.0225
endheader
time	ground_force_vx	ground_force_vy	ground_force_vz	ground_force_px	ground_force_py	ground_force_pz	l_ground_force_vx	l_ground_force_vy	l_ground_force_vz	l_ground_force_px	l_ground_force_py	l_ground_force_pz	ground_torque_x	ground_torque_y	ground_torque_z	l_ground_torque_x	l_ground_torque_y	l_ground_torque_z
0.0	-0.0	-0.0	-0.0	-0.0	-0.0	-0.0	2.3368687629699707	-4.10573673248291	-766.3626708984375	-0.0	-0.0	-0.0	-0.0	-0.0	-0.0	231672.71875	-17757.72265625	635.8555297851562
0.0005	-0.0	-0.0	-0.0	-0.0	-0.0	-0.0	2.032759428024292	-4.902649402618408	-766.3157958984375	-0.0	-0.0	-0.0	-0.0	-0.0	-0.0	231557.421875	-17747.345703125	570.1611328125
0.001	-0.0	-0.0	-0.0	-0.0	-0.0	-0.0	2.1762967109680176	-5.2840118408203125	-764.5582275390625	-0.0	-0.0	-0.0	-0.0	-0.0	-0.0	230845.421875	-17594.3125	624.1425170898438
0.0015	-0.0	-0.0	-0.0	-0.0	-0.0	-0.0	2.292421102523804	-5.891587734222412	-764.1281127929688	-0.0	-0.0	-0.0	-0.0	-0.0	-0.0	230304.015625	-17651.904296875	600.4498291015625
0.002	-0.0	-0.0	-0.0	-0.0	-0.0	-0.0	2.358651876449585	-7.133240699768066	-762.547119140625	-0.0	-0.0	-0.0	-0.0	-0.0	-0.0	229825.9375	-17466.341796875	783.34912109375
0.0025	-0.0	-0.0	-0.0	-0.0	-0.0	-0.0	2.1004929542541504	-7.346168518066406	-760.8527221679688	-0.0	-0.0	-0.0	-0.0	-0.0	-0.0	229039.5	-17627.498046875	836.8104248046875
0.003	-0.0	-0.0	-0.0	-0.0	-0.0	-0.0	2.447354555130005	-7.938770294189453	-759.6512451171875	-0.0	-0.0	-0.0	-0.0	-0.0	-0.0	228417.78125	-17607.40234375	872.1383666992188
0.0035	-0.0	-0.0	-0.0	-0.0	-0.0	-0.0	2.5642330646514893	-8.562112808227539	-758.01953125	-0.0	-0.0	-0.0	-0.0	-0.0	-0.0	227888.59375	-17559.609375	906.1119384765624
0.004	-0.0	-0.0	-0.0	-0.0	-0.0	-0.0	2.786335229873657	-9.008811950683594	-756.6910400390625	-0.0	-0.0	-0.0	-0.0	-0.0	-0.0	227367.09375	-17650.07421875	992.1105346679688
0.0045000000000000005	-0.0	-0.0	-0.0	-0.0	-0.0	-0.0	3.077433586120605	-9.24675178527832	-756.0597534179688	-0.0	-0.0	-0.0	-0.0	-0.0	-0.0	226776.78125	-17576.705078125	1194.44189453125
0.005	-0.0	-0.0	-0.0	-0.0	-0.0	-0.0	3.274160623550415	-9.299896240234377	-754.1285400390625	-0.0	-0.0	-0.0	-0.0	-0.0	-0.0	226208.140625	-17749.18359375	1311.8197021484375
0.0055	-0.0	-0.0	-0.0	-0.0	-0.0	-0.0	3.656184434890747	-9.45866584777832	-752.6742553710938	-0.0	-0.0	-0.0	-0.0	-0.0	-0.0	225546.609375	-17713.9765625	1450.72802734375
0.006	-0.0	-0.0	-0.0	-0.0	-0.0	-0.0	3.903274536132813	-9.66296672821045	-749.2794189453125	-0.0	-0.0	-0.0	-0.0	-0.0	-0.0	224970.546875	-17892.564453125	1388.9842529296875
0.006500000000000001	-0.0	-0.0	-0.0	-0.0	-0.0	-0.0	4.27131986618042	-9.468345642089844	-748.8263549804688	-0.0	-0.0	-0.0	-0.0	-0.0	-0.0	224412.71875	-17853.822265625	1661.8250732421875
0.007	-0.0	-0.0	-0.0	-0.0	-0.0	-0.0	4.266436100006104	-9.44197940826416	-747.1185913085938	-0.0	-0.0	-0.0	-0.0	-0.0	-0.0	223914.84375	-17897.828125	1664.614501953125
0.0075	-0.0	-0.0	-0.0	-0.0	-0.0	-0.0	3.998741626739502	-9.216984748840332	-745.8211669921875	-0.0	-0.0	-0.0	-0.0	-0.0	-0.0	223564.265625	-17956.33203125	1672.10693359375
0.008	-0.0	-0.0	-0.0	-0.0	-0.0	-0.0	4.331450462341309	-8.49587345123291	-742.0881958007812	-0.0	-0.0	-0.0	-0.0	-0.0	-0.0	223250.65625	-17919.740234375	1591.366943359375
0.0085	-0.0	-0.0	-0.0	-0.0	-0.0	-0.0	4.893874645233154	-8.572936058044434	-741.1134033203125	-0.0	-0.0	-0.0	-0.0	-0.0	-0.0	222729.84375	-18281.921875	1819.6861572265625
0.009000000000000001	-0.0	-0.0	-0.0	-0.0	-0.0	-0.0	5.038609504699707	-7.418509006500244	-740.829833984375	-0.0	-0.0	-0.0	-0.0	-0.0	-0.0	222589.296875	-18462.994140625	1728.16064453125
0.0095	-0.0	-0.0	-0.0	-0.0	-0.0	-0.0	5.172364234924316	-6.067337512969971	-740.285400390625	-0.0	-0.0	-0.0	-0.0	-0.0	-0.0	222646.140625	-18775.11328125	1663.177490234375
0.01	-0.0	-0.0	-0.0	-0.0	-0.0	-0.0	5.500068664550781	-4.998421669006348	-739.78125	-0.0	-0.0	-0.0	-0.0	-0.0	-0.0	223148.28125	-18914.15625	1669.695556640625
0.0105	-0.0	-0.0	-0.0	-0.0	-0.0	-0.0	5.717432975769043	-3.334051609039306	-740.0440673828125	-0.0	-0.0	-0.0	-0.0	-0.0	-0.0	223653.953125	-19268.669921875	1668.8277587890625
0.011	-0.0	-0.0	-0.0	-0.0	-0.0	-0.0	6.121012210845947	-1.5986183881759644	-743.3440551757812	-0.0	-0.0	-0.0	-0.0	-0.0	-0.0	224593.3125	-19641.01953125	1573.1356201171875
0.0115	-0.0	-0.0	-0.0	-0.0	-0.0	-0.0	6.484745025634766	0.308938980102539	-746.380859375	-0.0	-0.0	-0.0	-0.0	-0.0	-0.0	225740.921875	-19928.341796875	1553.115966796875
0.012	-0.0	-0.0	-0.0	-0.0	-0.0	-0.0	6.173705577850342	1.819567441940308	-750.1849365234375	-0.0	-0.0	-0.0	-0.0	-0.0	-0.0	227056.921875	-20236.0234375	1399.2991943359375
0.0125	-0.0	-0.0	-0.0	-0.0	-0.0	-0.0	5.788474559783936	2.579179286956787	-753.1354370117188	-0.0	-0.0	-0.0	-0.0	-0.0	-0.0	228198.53125	-20154.451171875	1252.0982666015625
0.013000000000000001	-0.0	-0.0	-0.0	-0.0	-0.0	-0.0	5.554179668426514	3.003582000732422	-755.7744140625	-0.0	-0.0	-0.0	-0.0	-0.0	-0.0	228889.765625	-20210.23046875	1149.83642578125
0.0135	-0.0	-0.0	-0.0	-0.0	-0.0	-0.0	5.252758502960205	3.2007899284362797	-756.9937744140625	-0.0	-0.0	-0.0	-0.0	-0.0	-0.0	229405.765625	-20236.181640625	1016.0536499023438
0.014	-0.0	-0.0	-0.0	-0.0	-0.0	-0.0	4.827392101287842	2.5448036193847656	-758.9024658203125	-0.0	-0.0	-0.0	-0.0	-0.0	-0.0	229464.75	-20110.25390625	745.6806030273438
0.0145	-0.0	-0.0	-0.0	-0.0	-0.0	-0.0	4.089449882507324	1.6832919120788574	-759.347412109375	-0.0	-0.0	-0.0	-0.0	-0.0	-0.0	229695.40625	-20023.552734375	660.8138427734375
0.015	-0.0	-0.0	-0.0	-0.0	-0.0	-0.0	3.833404064178467	0.539356529712677	-759.9556884765625	-0.0	-0.0	-0.0	-0.0	-0.0	-0.0	229509.296875	-20037.078125	602.3800659179688
0.0155	-0.0	-0.0	-0.0	-0.0	-0.0	-0.0	3.399801731109619	-1.0023361444473269	-759.5712280273438	-0.0	-0.0	-0.0	-0.0	-0.0	-0.0	228970.421875	-20008.00390625	441.28619384765625
0.016	-0.0	-0.0	-0.0	-0.0	-0.0	-0.0	2.715170621871948	-2.7537829875946045	-758.8436889648438	-0.0	-0.0	-0.0	-0.0	-0.0	-0.0	228503.03125	-19774.29296875	269.2455749511719
0.0165	-0.0	-0.0	-0.0	-0.0	-0.0	-0.0	2.094255208969116	-3.821535587310791	-756.926513671875	-0.0	-0.0	-0.0	-0.0	-0.0	-0.0	228187.625	-19493.884765625	181.4245147705078
0.017	-0.0	-0.0	-0.0	-0.0	-0.0	-0.0	1.2959179878234863	-4.757940769195557	-756.0120239257812	-0.0	-0.0	-0.0	-0.0	-0.0	-0.0	227727.609375	-19311.26171875	-11.9088773727417
0.0175	-0.0	-0.0	-0.0	-0.0	-0.0	-0.0	0.7346510291099548	-5.618910312652588	-754.5731201171875	-0.0	-0.0	-0.0	-0.0	-0.0	-0.0	227406.796875	-19115.673828125	-214.6905059814453
0.018000000000000002	-0.0	-0.0	-0.0	-0.0	-0.0	-0.0	0.0151608735322952	-6.236367702484131	-754.2440795898438	-0.0	-0.0	-0.0	-0.0	-0.0	-0.0	226722.734375	-19110.8203125	-370.5582275390625
0.0185	-0.0	-0.0	-0.0	-0.0	-0.0	-0.0	-0.3620514273643493	-6.679207801818848	-754.0076293945312	-0.0	-0.0	-0.0	-0.0	-0.0	-0.0	226664.96875	-19090.701171875	-522.71044921875
0.019	-0.0	-0.0	-0.0	-0.0	-0.0	-0.0	-0.7983970642089844	-6.969997406005859	-754.7689819335938	-0.0	-0.0	-0.0	-0.0	-0.0	-0.0	226794.34375	-19073.47265625	-672.2484741210938
0.0195	-0.0	-0.0	-0.0	-0.0	-0.0	-0.0	-1.1459535360336304	-6.572710990905762	-754.0031127929688	-0.0	-0.0	-0.0	-0.0	-0.0	-0.0	226953.5	-18974.259765625	-845.0388793945312
0.02	-0.0	-0.0	-0.0	-0.0	-0.0	-0.0	-1.29069721698761	-6.441907405853272	-754.0322265625	-0.0	-0.0	-0.0	-0.0	-0.0	-0.0	226839.4375	-18915.267578125	-1106.8055419921875
0.0205	-0.0	-0.0	-0.0	-0.0	-0.0	-0.0	-1.617462158203125	-6.319366455078125	-753.545166015625	-0.0	-0.0	-0.0	-0.0	-0.0	-0.0	226980.25	-18959.75390625	-1160.10986328125
0.021	-0.0	-0.0	-0.0	-0.0	-0.0	-0.0	-1.7307045459747314	-5.771013259887695	-754.1676025390625	-0.0	-0.0	-0.0	-0.0	-0.0	-0.0	227096.265625	-19170.38671875	-1238.4609375
0.021500000000000002	-0.0	-0.0	-0.0	-0.0	-0.0	-0.0	-1.817054033279419	-5.054937839508057	-754.9329833984375	-0.0	-0.0	-0.0	-0.0	-0.0	-0.0	226936.546875	-19228.6875	-1425.910888671875
0.022	-0.0	-0.0	-0.0	-0.0	-0.0	-0.0	-1.1940735578536987	-4.511063098907471	-753.4954833984375	-0.0	-0.0	-0.0	-0.0	-0.0	-0.0	227579.671875	-19465.291015625	-1460.1243896484375
0.0225	-0.0	-0.0	-0.0	-0.0	-0.0	-0.0	-1.224903583526611	-3.595879077911377	-754.6708984375	-0.0	-0.0	-0.0	-0.0	-0.0	-0.0	227425.78125	-19334.634765625	-1512.9349365234375
